<svg width="100%" height="100%" viewBox="0 0 78 24" fill="none" alt="Logo Obeyo" xmlns="http://www.w3.org/2000/svg">
  <path d="M70.1788 19.366C74.4185 19.366 77.4469 17.049 77.4469 12.2043C77.4469 7.35972 74.4185 5.04272 70.1788 5.04272C65.9654 5.04272 62.9106 7.35972 62.9106 12.2043C62.9106 17.049 65.9654 19.366 70.1788 19.366ZM70.2051 16.9437C67.6771 16.9437 65.9654 15.4165 65.9654 12.2043C65.9654 8.99215 67.6507 7.43871 70.1788 7.43871C72.6805 7.43871 74.4186 8.99215 74.4186 12.2043C74.4186 15.4165 72.7068 16.9437 70.2051 16.9437Z" fill="currentColor"/>
  <path d="M55.0029 24L62.7714 5.41138H59.6376L55.7139 15.3639H55.4506L51.4741 5.41138H48.2087L53.8969 18.9711L51.7901 24H55.0029Z" fill="currentColor"/>
  <path d="M7.26815 19.366C11.5079 19.366 14.5363 17.049 14.5363 12.2043C14.5363 7.35972 11.5079 5.04272 7.26815 5.04272C3.05473 5.04272 0 7.35972 0 12.2043C0 17.049 3.05473 19.366 7.26815 19.366ZM7.29448 16.9437C4.76643 16.9437 3.05473 15.4165 3.05473 12.2043C3.05473 8.99215 4.7401 7.43871 7.26815 7.43871C9.76986 7.43871 11.5079 8.99215 11.5079 12.2043C11.5079 15.4165 9.7962 16.9437 7.29448 16.9437Z" fill="currentColor"/>
  <path fill-rule="evenodd" clip-rule="evenodd" d="M19.7677 5.88302V0H16.742V11.9565C16.742 11.9718 16.7419 11.9873 16.7419 12.0027C16.7419 12.0181 16.742 12.0336 16.742 12.049V18.9608H19.4999L19.6293 18.0373C20.8229 18.7931 22.3237 19.1643 24.0101 19.1643C28.2498 19.1643 31.2782 16.8473 31.2782 12.0027C31.2782 7.15808 28.2498 4.84109 24.0101 4.84109C22.3882 4.84109 20.9381 5.18439 19.7677 5.88302ZM19.7967 12.0027C19.7967 15.2149 21.5084 16.742 24.0364 16.742C26.5381 16.742 28.2498 15.2149 28.2498 12.0027C28.2498 8.79051 26.5118 7.23707 24.0101 7.23707C21.482 7.23707 19.7967 8.79051 19.7967 12.0027Z" fill="currentColor"/>
  <path fill-rule="evenodd" clip-rule="evenodd" d="M40.5504 19.1643C43.7448 19.1643 46.2515 17.849 47.2935 15.1283L47.2935 15.1283H43.9813L43.9813 15.1283C43.2438 16.2148 42.0466 16.742 40.5767 16.742C38.2996 16.742 36.6848 15.503 36.3867 12.9095H45.3849L47.7811 12.9095C47.8059 12.6177 47.8185 12.3155 47.8185 12.0027C47.8185 7.15806 44.7901 4.84106 40.5504 4.84106C36.337 4.84106 33.2822 7.15806 33.2822 12.0027C33.2822 16.8473 36.337 19.1643 40.5504 19.1643ZM36.444 10.6906H44.6801C44.2614 8.36648 42.6835 7.23705 40.5504 7.23705C38.3948 7.23705 36.8518 8.36648 36.444 10.6906Z" fill="currentColor"/>
</svg>
